# xmcd
#
# Track frame offsets: 
#        150
#        15159
#        27134
#        38139
#        53406
#        64884
#        78036
#        96896
#        108336
#        119253
#        133707
#        147455
#        160391
#        175477
#
# Disc length: 2560 seconds
#
# Revision: 2
# Processed by: cddbd v1.5.2PL0 Copyright (c) Steve Scherf et al.
# Submitted via: ExactAudioCopy v0.95b4
#
DISCID=af09fe0e
DTITLE=Ryan Adams - Easy Tiger
DYEAR=2007
DGENRE=Alt. Rock
TTITLE0=Goodnight Rose
TTITLE1=Two
TTITLE2=Everybody Knows
TTITLE3=Halloweenhead
TTITLE4=Oh My God, Whatever, Etc.
TTITLE5=Tears Of Gold
TTITLE6=The Sun Also Sets
TTITLE7=Off Broadway
TTITLE8=Pearls On A String
TTITLE9=Rip Off
TTITLE10=Two Hearts
TTITLE11=These Girls
TTITLE12=I Taught Myself How To Grow Old
TTITLE13=Nobody Listens To Silence (bonus track)
EXTD=
EXTT0=
EXTT1=
EXTT2=
EXTT3=
EXTT4=
EXTT5=
EXTT6=
EXTT7=
EXTT8=
EXTT9=
EXTT10=
EXTT11=
EXTT12=
EXTT13=
PLAYORDER=
